<?xml version="1.0" standalone="no"?>
<!DOCTYPE svg PUBLIC "-//W3C//DTD SVG 20010904//EN"
 "http://www.w3.org/TR/2001/REC-SVG-20010904/DTD/svg10.dtd">
<svg version="1.0" xmlns="http://www.w3.org/2000/svg"
 width="374.000000pt" height="131.000000pt" viewBox="0 0 374.000000 131.000000"
 preserveAspectRatio="xMidYMid meet">
<metadata>
Created by potrace 1.15, written by Peter Selinger 2001-2017
</metadata>
<g transform="translate(0.000000,131.000000) scale(0.100000,-0.100000)"
fill="#000000" stroke="none">
<path d="M434 924 c5 -13 2 -15 -16 -10 -13 3 -42 9 -65 12 -34 5 -43 4 -43
-8 0 -17 -41 -38 -74 -38 -28 0 -59 -31 -51 -52 4 -9 -8 -29 -28 -49 -39 -39
-60 -96 -31 -85 15 6 16 -1 11 -75 -4 -64 -2 -87 10 -106 8 -12 19 -20 25 -17
12 8 88 -67 88 -87 0 -20 88 -48 98 -32 11 16 111 26 127 13 16 -14 75 13 75
34 0 7 18 29 40 49 25 22 38 41 34 50 -3 8 -1 18 5 22 13 8 14 94 2 114 -6 10
-5 22 5 35 18 26 18 29 -6 56 -11 13 -20 30 -20 39 0 27 -24 85 -47 116 -23
32 -42 30 -24 -3 9 -17 7 -19 -16 -16 -14 1 -37 14 -50 28 -27 29 -59 36 -49
10z m31 -104 c23 -9 86 -68 128 -119 26 -33 27 -35 11 -60 -10 -14 -24 -30
-32 -35 -13 -7 -12 -11 6 -20 21 -11 21 -12 3 -42 -28 -45 -94 -74 -170 -74
-68 0 -102 14 -142 57 -39 42 -51 71 -51 124 0 129 125 214 247 169z"/>
<path d="M331 772 c-62 -33 -86 -107 -57 -175 21 -50 50 -70 110 -75 63 -5
109 15 131 58 26 50 20 60 -30 60 -25 0 -45 -5 -45 -10 0 -6 -11 -16 -25 -22
-21 -9 -28 -8 -45 7 -22 20 -26 55 -8 73 18 18 53 14 73 -8 12 -13 31 -20 57
-20 33 0 38 3 38 24 0 13 -9 35 -21 50 -44 56 -116 71 -178 38z"/>
<path d="M899 881 c-68 -22 -99 -61 -99 -126 0 -66 23 -93 116 -136 89 -41
107 -60 81 -87 -22 -21 -77 -19 -116 4 l-31 18 -36 -35 -36 -36 34 -21 c140
-87 318 -17 294 114 -10 49 -48 89 -113 114 -68 27 -93 46 -93 72 0 33 43 43
95 23 l47 -17 29 28 c16 15 29 31 29 34 0 3 -17 16 -38 28 -42 24 -124 35
-163 23z"/>
<path d="M1940 660 l0 -230 45 0 45 0 0 63 1 62 57 -63 58 -63 53 3 54 3 -72
79 c-39 43 -71 81 -71 85 0 4 27 38 60 77 32 38 59 72 60 77 0 4 -22 7 -50 7
-48 0 -50 -1 -100 -61 l-50 -60 0 125 0 126 -45 0 -45 0 0 -230z"/>
<path d="M1202 806 c-11 -24 -34 -54 -51 -67 -36 -26 -42 -59 -11 -59 18 0 20
-7 20 -77 0 -114 13 -151 58 -170 27 -11 47 -13 72 -7 32 8 35 12 38 49 l3 40
-38 0 -38 0 -3 83 -3 82 41 0 40 0 0 40 0 40 -40 0 -40 0 0 45 c0 59 -22 60
-48 1z"/>
<path d="M1400 742 c-44 -24 -46 -33 -16 -61 25 -23 26 -23 61 -7 30 14 39 15
62 4 44 -22 38 -35 -19 -43 -29 -4 -65 -14 -80 -21 -63 -33 -77 -103 -30 -155
30 -34 23 -33 185 -30 l67 1 0 120 c0 135 -10 169 -60 195 -40 21 -127 19
-170 -3z"/>
<path d="M1680 595 l0 -165 45 0 45 0 0 103 c0 90 3 106 20 125 24 26 30 27
56 7 27 -20 30 -19 55 21 l22 37 -22 18 c-27 22 -100 26 -119 7 -9 -9 -12 -9
-12 0 0 8 -17 12 -45 12 l-45 0 0 -165z"/>
</g>
</svg>
